<svg width="20" height="20" viewBox="0 0 20 20" fill="none" xmlns="http://www.w3.org/2000/svg">
<path d="M19 15C17.8742 15 17.744 13.75 16.0067 13.75C14.2617 13.75 14.1253 15 13.0033 15C11.8906 15 11.7396 13.75 10 13.75C8.27867 13.75 8.10285 15 7.0067 15C5.87575 15 5.75304 13.75 4.00335 13.75C2.25369 13.75 2.1289 15 1 15V11.875C1 10.8398 1.86384 10 2.92857 10H3.57143V4.375H6.14286V10H8.71429V4.375H11.2857V10H13.8571V4.375H16.4286V10H17.0714C18.1362 10 19 10.8398 19 11.875V15ZM19 20H1V16.25C2.74198 16.25 2.87903 15 4.00335 15C5.12638 15 5.25905 16.25 7.0067 16.25C8.72807 16.25 8.90381 15 10 15C11.1309 15 11.2536 16.25 13.0033 16.25C14.7454 16.25 14.8824 15 16.0067 15C17.1111 15 17.2624 16.25 19 16.25V20ZM4.85714 3.75C4.14397 3.75 3.57143 3.19336 3.57143 2.5C3.57143 1.28906 4.85714 1.60156 4.85714 0C5.33929 0 6.14286 1.15234 6.14286 2.1875C6.14286 3.22266 5.57031 3.75 4.85714 3.75ZM10 3.75C9.28683 3.75 8.71429 3.19336 8.71429 2.5C8.71429 1.28906 10 1.60156 10 0C10.4821 0 11.2857 1.15234 11.2857 2.1875C11.2857 3.22266 10.7132 3.75 10 3.75ZM15.1429 3.75C14.4297 3.75 13.8571 3.19336 13.8571 2.5C13.8571 1.28906 15.1429 1.60156 15.1429 0C15.625 0 16.4286 1.15234 16.4286 2.1875C16.4286 3.22266 15.856 3.75 15.1429 3.75Z" fill="#9E9E9E"/>
</svg>
