<svg width="24" height="24" viewBox="0 0 24 24" fill="none" xmlns="http://www.w3.org/2000/svg">
<path d="M12 11.25C11.5858 11.25 11.25 11.5858 11.25 12C11.25 12.4142 11.5858 12.75 12 12.75C12.4142 12.75 12.75 12.4142 12.75 12C12.75 11.5858 12.4142 11.25 12 11.25ZM8.99999 11.25C8.58581 11.25 8.24999 11.5858 8.24999 12C8.24999 12.4142 8.58581 12.75 8.99999 12.75C9.41418 12.75 9.74999 12.4142 9.74999 12C9.74999 11.5858 9.41418 11.25 8.99999 11.25ZM15 11.25C14.5858 11.25 14.25 11.5858 14.25 12C14.25 12.4142 14.5858 12.75 15 12.75C15.4142 12.75 15.75 12.4142 15.75 12C15.75 11.5858 15.4142 11.25 15 11.25ZM19.4153 5.29027C15.7098 1.19475 9.38579 0.878531 5.29027 4.58398C1.19475 8.28948 0.878531 14.6135 4.58398 18.709L2.14648 21.1465C2.05273 21.2402 2.00005 21.3674 2.00005 21.4999C1.99999 21.7761 2.22387 21.9999 2.49999 22H12C14.4794 21.9999 16.8704 21.0787 18.709 19.4153C22.8046 15.7098 23.1207 9.38579 19.4153 5.29027ZM12 21H3.70696L5.63573 19.0713C5.63579 19.0712 5.63586 19.0712 5.63586 19.0711C5.83105 18.8758 5.83098 18.5594 5.63573 18.3642C3.94836 16.6769 3.00024 14.3884 2.99999 12.002C2.99944 7.03197 7.02795 3.00255 11.998 3.00201C16.9679 3.00146 20.9974 7.02996 20.998 12C20.9985 16.97 16.97 20.9994 12 21Z" fill="white"/>
</svg>
