<svg width="24" height="24" viewBox="0 0 24 24" fill="none" xmlns="http://www.w3.org/2000/svg">
<path d="M6.44951 3.67808C10.4095 1.03808 15.6885 1.55908 19.0695 4.91808C20.9585 6.80908 22.0085 9.36808 21.9986 12.0381C21.9795 16.7981 18.5985 20.8881 13.9285 21.8091C9.24851 22.7291 4.56951 20.2181 2.75851 15.8091C0.938506 11.4081 2.47951 6.32808 6.44951 3.67808ZM15.4985 8.24808C15.3695 8.18808 15.2185 8.16808 15.0795 8.21808L10.1385 9.77808C9.96851 9.82808 9.83851 9.96808 9.78951 10.1381L8.21851 15.0781C8.18851 15.1781 8.18851 15.2881 8.21851 15.3881C8.25851 15.5281 8.35951 15.6481 8.48951 15.7181C8.62851 15.7981 8.77951 15.8091 8.91851 15.7681L13.8595 14.2081C14.0295 14.1581 14.1595 14.0281 14.2185 13.8581L15.7685 8.91808C15.8095 8.80908 15.8095 8.68808 15.7685 8.57808C15.7295 8.43808 15.6285 8.31808 15.4985 8.24808Z" fill="#A400FF"/>
</svg>
