<svg width="380" height="201" viewBox="0 0 380 201" fill="none" xmlns="http://www.w3.org/2000/svg">
<g clip-path="url(#clip0_1352_18026)">
<path d="M275.018 96.7775C275.018 99.5878 274.9 102.37 274.663 105.123C274.477 107.272 274.224 109.402 273.902 111.513C273.56 113.748 273.141 115.956 272.645 118.137V118.139C272.321 119.575 271.965 120.998 271.577 122.41C270.452 126.514 269.052 130.539 267.388 134.456C267.026 135.308 266.652 136.154 266.267 136.995C264.808 140.178 263.176 143.277 261.376 146.28C256.328 154.713 250.028 162.329 242.69 168.866C241.896 169.573 241.091 170.267 240.275 170.95C222.95 185.426 201.083 193.34 178.509 193.305C125.208 193.305 82 150.089 82 96.7775C82 43.4662 125.208 0.25012 178.509 0.25012C200.306 0.215744 221.467 7.59522 238.518 21.1769C239.317 21.8104 240.106 22.4581 240.885 23.1201C244.687 26.3451 248.236 29.8579 251.499 33.6275H251.501C266.7 51.1508 275.052 73.5793 275.018 96.7775Z" fill="#35383F"/>
<path d="M110.49 113.451C101.297 107.979 94.3576 97.7506 95.2584 87.0879C103.664 95.134 114.643 99.9472 126.255 100.676C130.734 100.941 135.744 100.769 139.041 103.813C141.093 105.706 142.048 108.558 142.204 111.346C142.361 114.134 141.802 116.907 141.247 119.644L141.438 120.314C130.739 120.354 119.684 118.924 110.49 113.451Z" fill="#1F222A"/>
<path d="M95.4809 87.076C99.1645 95.1306 105.292 101.819 112.993 106.193C114.648 107.119 116.408 107.916 118.279 108.285C120.105 108.631 121.99 108.481 123.738 107.852C125.381 107.298 126.996 106.541 128.744 106.396C130.587 106.244 132.293 106.955 133.633 108.2C135.273 109.724 136.268 111.746 137.172 113.758C138.176 115.991 139.183 118.327 141.107 119.933C141.341 120.127 141.025 120.478 140.792 120.283C137.444 117.489 136.898 112.81 134.221 109.519C132.972 107.983 131.253 106.815 129.211 106.845C127.425 106.872 125.758 107.651 124.1 108.227C122.359 108.831 120.616 109.114 118.778 108.849C116.898 108.577 115.103 107.848 113.431 106.967C109.654 104.943 106.22 102.336 103.253 99.2445C99.8469 95.7345 97.0665 91.6676 95.0317 87.2198C94.9059 86.9445 95.3559 86.8025 95.4809 87.076H95.4809Z" fill="#1F222A"/>
<path d="M110.431 104.931C109.522 106.124 108.218 106.954 106.754 107.275C105.289 107.595 103.758 107.384 102.434 106.68C102.167 106.536 102.377 106.114 102.645 106.257C103.876 106.916 105.302 107.112 106.666 106.811C108.029 106.51 109.24 105.731 110.08 104.616C110.263 104.373 110.612 104.69 110.431 104.931L110.431 104.931Z" fill="#1F222A"/>
<path d="M122.944 108.243C122.561 105.201 121.046 102.416 118.701 100.441C118.468 100.246 118.784 99.8953 119.016 100.09C121.453 102.149 123.023 105.052 123.415 108.218C123.452 108.52 122.98 108.543 122.944 108.243V108.243Z" fill="#1F222A"/>
<path d="M100.433 95.5134C100.881 95.1253 101.225 94.6319 101.436 94.0777C101.646 93.5235 101.715 92.9258 101.637 92.3382C101.596 92.037 102.067 92.0138 102.108 92.313C102.191 92.9626 102.114 93.6227 101.883 94.2355C101.652 94.8483 101.275 95.3953 100.784 95.8287C100.741 95.8734 100.683 95.9001 100.621 95.9034C100.559 95.9068 100.498 95.8864 100.451 95.8465C100.405 95.8045 100.377 95.746 100.373 95.6836C100.37 95.6213 100.391 95.5601 100.433 95.5135V95.5134Z" fill="#1F222A"/>
<path d="M125.017 66.4302C125.048 66.6175 125.079 66.8048 125.113 66.994C125.541 69.5104 126.173 71.9879 127.002 74.4021C127.064 74.5897 127.128 74.779 127.195 74.9645C129.255 80.7594 132.372 86.1214 136.389 90.778C137.989 92.6294 139.728 94.3565 141.59 95.9441C144.162 98.1366 147.125 100.309 148.774 103.14C148.949 103.433 149.106 103.737 149.244 104.05L142.241 120.029C142.206 120.057 142.176 120.087 142.142 120.115L141.891 120.766C141.789 120.691 141.685 120.611 141.584 120.536C141.525 120.492 141.467 120.445 141.408 120.402C141.369 120.372 141.33 120.342 141.293 120.317C141.28 120.307 141.267 120.297 141.258 120.288C141.221 120.264 141.189 120.237 141.156 120.213C140.574 119.767 139.994 119.316 139.416 118.859C139.412 118.858 139.412 118.858 139.41 118.853C135.016 115.366 130.874 111.481 127.453 107.091C127.351 106.959 127.244 106.825 127.144 106.686C125.613 104.699 124.248 102.59 123.06 100.38C122.414 99.1676 121.829 97.9235 121.309 96.6522C119.97 93.3649 119.157 89.8874 118.899 86.3473C118.386 79.2901 120.135 72.1472 124.667 66.8328C124.783 66.6969 124.897 66.5644 125.017 66.4302Z" fill="#1F222A"/>
<path d="M125.204 66.555C123.297 75.2043 124.163 84.2348 127.679 92.3639C128.443 94.1008 129.369 95.7963 130.641 97.2175C131.89 98.5932 133.485 99.6091 135.26 100.16C136.905 100.706 138.65 101.075 140.134 102.012C141.697 103 142.631 104.595 142.951 106.396C143.344 108.6 142.92 110.814 142.431 112.964C141.888 115.352 141.287 117.824 141.857 120.265C141.926 120.561 141.463 120.65 141.394 120.355C140.402 116.108 142.783 112.042 142.627 107.803C142.554 105.825 141.885 103.857 140.236 102.651C138.793 101.597 136.994 101.216 135.324 100.677C133.57 100.111 132.007 99.2871 130.7 97.9682C129.362 96.619 128.368 94.9561 127.563 93.2463C125.766 89.3555 124.593 85.2064 124.085 80.9509C123.478 76.0974 123.707 71.1759 124.759 66.3993C124.825 66.1037 125.269 66.2613 125.204 66.555Z" fill="#1F222A"/>
<path d="M126.393 89.8133C124.949 90.2182 123.408 90.0967 122.046 89.4703C120.683 88.844 119.588 87.7537 118.955 86.3942C118.828 86.1187 119.25 85.9082 119.378 86.1841C119.964 87.4512 120.985 88.4667 122.255 89.0473C123.525 89.6279 124.96 89.7354 126.302 89.3504C126.594 89.2671 126.683 89.7304 126.393 89.8133H126.393Z" fill="#1F222A"/>
<path d="M134.39 99.9928C135.915 97.3339 136.383 94.1975 135.699 91.2091C135.631 90.9131 136.094 90.8232 136.162 91.1188C136.868 94.2299 136.375 97.4928 134.781 100.256C134.629 100.52 134.238 100.255 134.39 99.9928Z" fill="#1F222A"/>
<path d="M124.077 76.2728C124.669 76.2325 125.241 76.046 125.742 75.73C126.244 75.414 126.659 74.9784 126.95 74.4624C127.099 74.1973 127.489 74.4625 127.341 74.7258C127.017 75.2945 126.558 75.775 126.004 76.1254C125.451 76.4757 124.82 76.6853 124.167 76.7357C124.106 76.7456 124.044 76.7318 123.992 76.6972C123.941 76.6626 123.905 76.6098 123.891 76.5494C123.879 76.488 123.892 76.4246 123.927 76.3728C123.962 76.321 124.016 76.285 124.077 76.2728V76.2728Z" fill="#1F222A"/>
<path d="M148.853 22.6224L160.666 160.926L137.041 162.703V24.3821C139.856 22.519 143.897 22.2275 148.853 22.6224Z" fill="#212121"/>
<path d="M207.16 22.6224L195.348 160.926L218.972 162.703V24.3821C216.157 22.519 212.116 22.2275 207.16 22.6224Z" fill="#212121"/>
<path d="M215.435 168.419H140.326C139.121 168.417 137.967 167.938 137.115 167.086C136.264 166.235 135.785 165.08 135.783 163.875V26.4117C135.785 25.2071 136.264 24.0522 137.115 23.2004C137.967 22.3487 139.121 21.8695 140.326 21.8682H215.435C216.639 21.8695 217.794 22.3487 218.645 23.2004C219.497 24.0522 219.976 25.2071 219.977 26.4117V163.875C219.976 165.08 219.497 166.235 218.645 167.086C217.794 167.938 216.639 168.417 215.435 168.419ZM140.326 23.3764C139.521 23.3773 138.75 23.6974 138.181 24.2664C137.612 24.8354 137.292 25.6069 137.291 26.4117V163.875C137.292 164.68 137.612 165.451 138.181 166.02C138.75 166.59 139.521 166.91 140.326 166.911H215.435C216.239 166.91 217.01 166.59 217.579 166.02C218.148 165.451 218.468 164.68 218.469 163.875V26.4117C218.468 25.6069 218.148 24.8354 217.579 24.2664C217.01 23.6974 216.239 23.3773 215.435 23.3764L140.326 23.3764Z" fill="#212121"/>
<path d="M219.223 44.7432H136.537V46.2514H219.223V44.7432Z" fill="#212121"/>
<path d="M219.223 69.8804H136.537V71.3886H219.223V69.8804Z" fill="#212121"/>
<path d="M163.37 22.6221H161.861V91.247H163.37V22.6221Z" fill="#212121"/>
<path d="M193.899 22.6221H192.391V91.247H193.899V22.6221Z" fill="#212121"/>
<path d="M228.648 172.566H129.626C127.826 172.566 126.1 171.851 124.827 170.578C123.555 169.306 122.84 167.579 122.84 165.779C122.84 163.979 123.555 162.253 124.827 160.98C126.1 159.707 127.826 158.992 129.626 158.992H228.648C230.447 158.992 232.173 159.707 233.446 160.98C234.719 162.253 235.434 163.979 235.434 165.779C235.434 167.579 234.719 169.306 233.446 170.578C232.173 171.851 230.447 172.566 228.648 172.566Z" fill="#212121"/>
<path d="M219.224 87.728H137.041V92.7555H219.224V87.728Z" fill="#212121"/>
<path d="M163.605 103.728L163.5 103.678C157.898 100.971 150.561 100.973 139.712 103.686L139.596 103.715L139.561 103.601C138.413 99.8369 137.113 95.5736 139.556 93.4761C139.59 87.3211 144.988 82.3232 151.618 82.3232C158.247 82.3232 163.644 87.3186 163.68 93.4719C167.314 96.2505 165.582 100.357 163.663 103.628L163.605 103.728Z" fill="#2F2E41"/>
<path d="M198.039 90.5485C197.938 91.0472 197.73 91.5179 197.428 91.9273C197.126 92.3367 196.738 92.6749 196.291 92.9181C195.844 93.1613 195.349 93.3035 194.842 93.3348C194.334 93.3661 193.826 93.2856 193.352 93.0991L173.554 112.999L171.787 106.82L191.451 88.3403C191.817 87.5659 192.454 86.9526 193.242 86.6167C194.03 86.2808 194.913 86.2456 195.725 86.5178C196.537 86.79 197.221 87.3506 197.648 88.0935C198.074 88.8364 198.213 89.7099 198.039 90.5485L198.039 90.5485Z" fill="#FFB6B6"/>
<path d="M149.106 109.706C149.106 109.706 147.31 113.777 151.742 116.288C156.174 118.799 171.665 115.33 174.179 114.846C176.692 114.361 186.08 100.309 186.08 100.309L184.753 93.418L172.302 104.228L149.106 109.706Z" fill="#9610FF"/>
<path d="M145.836 132.221L146.087 136.997C146.087 136.997 145.346 141.228 145.956 142.141C146.561 143.049 163.084 143.164 163.084 143.164C163.084 143.164 164.175 137.278 165.116 132.125L145.836 132.221Z" fill="#FFB6B6"/>
<path d="M193.341 195.371L196.796 194.673L195.807 180.719L190.709 181.749L193.341 195.371Z" fill="#FFB6B6"/>
<path d="M198.288 177.211L201.499 175.767L197.333 162.415L192.594 164.547L198.288 177.211Z" fill="#FFB6B6"/>
<path d="M201.086 169.688L195.04 173.112L180.128 149.146C169.66 156.2 159.424 159.578 149.105 161.38C145.616 162.002 142.059 161.687 141.389 158.135C141.358 157.969 141.333 157.802 141.314 157.634C140.902 153.755 145.727 148.782 146.34 144.036L159.545 143.243L161.173 145.331L176.444 135.941C179.515 134.052 183.554 135.074 185.466 138.222C185.567 138.388 185.66 138.559 185.747 138.733L201.086 169.688Z" fill="#2F2E41"/>
<path d="M197.385 185.811L190.466 186.454L177.922 160.793C165.482 162.933 153.747 163.619 143.596 161.03C140.159 160.166 138.058 156.616 138.904 153.102C138.943 152.938 138.989 152.776 139.041 152.615C140.256 148.908 143.436 146.285 145.941 142.207L164.242 142.485L162.198 149.539L179.976 147.238C183.551 146.775 186.816 149.364 187.269 153.019C187.292 153.212 187.308 153.406 187.315 153.601L197.385 185.811Z" fill="#2F2E41"/>
<path d="M152.982 100.08C157.086 100.08 160.413 96.7523 160.413 92.6474C160.413 88.5425 157.086 85.2148 152.982 85.2148C148.878 85.2148 145.551 88.5425 145.551 92.6474C145.551 96.7523 148.878 100.08 152.982 100.08Z" fill="#FFB6B6"/>
<path d="M148.627 102.763L155.44 103.564C155.728 103.598 155.997 103.721 156.212 103.915C156.426 104.11 156.574 104.366 156.636 104.649L157.72 109.608L164.475 117.564C164.475 117.564 166.9 122.113 165.991 127.268C165.081 132.424 164.681 136.254 164.681 136.254C164.681 136.254 146.562 143.049 145.955 142.14C145.349 141.23 145.152 137.097 145.152 137.097L142.727 110.108C142.727 110.108 145.455 105.559 146.971 105.559C147.95 105.526 147.824 103.323 148.627 102.763Z" fill="#9610FF"/>
<path d="M164.865 137.914C165.821 137.914 166.596 136.985 166.596 135.838C166.596 134.691 165.821 133.761 164.865 133.761C163.909 133.761 163.135 134.691 163.135 135.838C163.135 136.985 163.909 137.914 164.865 137.914Z" fill="#9610FF"/>
<path d="M191.627 191.778L196.893 189.139L197.886 191.455L204.545 192.801C204.874 192.867 205.173 193.037 205.398 193.286C205.624 193.534 205.764 193.848 205.799 194.182C205.833 194.516 205.76 194.852 205.59 195.142C205.42 195.431 205.162 195.658 204.853 195.79L198.419 198.549L196.328 196.734L196.877 199.21L194.451 200.25L191.627 191.778Z" fill="#2F2E41"/>
<path d="M196.781 176.101L202 173.369L203.033 175.667L209.715 176.896C210.045 176.956 210.347 177.121 210.577 177.366C210.807 177.61 210.953 177.922 210.993 178.255C211.033 178.588 210.966 178.925 210.801 179.218C210.636 179.51 210.382 179.742 210.076 179.879L203.691 182.751L201.569 180.972L202.161 183.439L199.754 184.521L196.781 176.101Z" fill="#2F2E41"/>
<path d="M148.736 90.3159C146.773 90.3191 144.857 89.7144 143.251 88.585L143.197 88.5474V88.482C143.199 86.5826 143.955 84.7617 145.298 83.4186C146.64 82.0755 148.461 81.32 150.36 81.3179H153.376C155.275 81.32 157.096 82.0755 158.438 83.4186C159.781 84.7617 160.537 86.5826 160.539 88.482C160.537 88.9167 160.365 89.3335 160.06 89.6436C159.756 89.9536 159.342 90.1324 158.908 90.142L148.906 90.3144C148.849 90.3154 148.793 90.3159 148.736 90.3159Z" fill="#2F2E41"/>
<path d="M161.041 87.1062C162.003 86.5508 162.164 85.0284 161.4 83.7058C160.637 82.3832 159.238 81.7612 158.277 82.3166C157.315 82.872 157.154 84.3944 157.918 85.717C158.681 87.0396 160.08 87.6616 161.041 87.1062Z" fill="#2F2E41"/>
<path d="M146.002 85.6305C147.082 84.5506 147.32 83.0384 146.535 82.253C145.75 81.4676 144.238 81.7063 143.158 82.7863C142.078 83.8662 141.84 85.3784 142.625 86.1638C143.41 86.9492 144.922 86.7105 146.002 85.6305Z" fill="#2F2E41"/>
<path d="M211.768 153.588H204.351C204.183 153.588 204.018 153.624 203.866 153.694C203.714 153.764 203.58 153.867 203.472 153.994C203.198 153.944 202.916 153.959 202.65 154.039C202.383 154.119 202.139 154.261 201.938 154.453C201.737 154.645 201.585 154.882 201.493 155.145C201.401 155.407 201.373 155.688 201.411 155.964C201.449 156.239 201.551 156.502 201.71 156.73C201.869 156.959 202.08 157.146 202.325 157.277C202.571 157.408 202.844 157.479 203.122 157.484C203.4 157.489 203.675 157.428 203.925 157.306L204.541 159.305C204.613 159.542 204.76 159.75 204.96 159.897C205.159 160.044 205.4 160.124 205.648 160.124H210.471C210.719 160.124 210.96 160.044 211.159 159.897C211.359 159.75 211.505 159.542 211.578 159.305L212.876 155.088C212.929 154.915 212.941 154.731 212.911 154.552C212.88 154.374 212.808 154.204 212.7 154.058C212.593 153.913 212.452 153.794 212.29 153.712C212.128 153.63 211.949 153.588 211.768 153.588ZM203.159 156.981C202.825 156.981 202.506 156.849 202.27 156.613C202.034 156.378 201.902 156.058 201.902 155.725C201.902 155.391 202.034 155.072 202.27 154.836C202.506 154.6 202.825 154.468 203.159 154.468C203.182 154.468 203.203 154.473 203.226 154.474C203.176 154.677 203.182 154.889 203.243 155.088L203.774 156.814C203.587 156.922 203.375 156.98 203.159 156.981Z" fill="#3F3D56"/>
<path d="M178.647 148.131C178.14 148.178 177.63 148.113 177.151 147.941C176.672 147.769 176.237 147.495 175.876 147.136C175.515 146.778 175.237 146.345 175.061 145.867C174.885 145.39 174.816 144.88 174.859 144.373L150.119 131.112L155.53 127.647L178.872 141.186C179.718 141.314 180.489 141.749 181.036 142.407C181.584 143.065 181.871 143.902 181.844 144.758C181.816 145.614 181.475 146.431 180.886 147.052C180.297 147.674 179.5 148.058 178.647 148.131Z" fill="#FFB6B6"/>
<path d="M146.26 106.743C146.26 106.743 141.845 106.19 140.712 111.158C139.579 116.125 147.346 129.972 148.531 132.241C149.716 134.511 165.868 139.474 165.868 139.474L172.088 136.225L158.162 127.397L146.26 106.743Z" fill="#9610FF"/>
<path d="M177.378 86.2197H178.886C179.619 86.2197 180.322 86.5111 180.841 87.0296C181.359 87.5482 181.65 88.2515 181.65 88.9848H174.613C174.613 88.2515 174.905 87.5482 175.423 87.0296C175.941 86.5111 176.645 86.2197 177.378 86.2197Z" fill="#212121"/>
<path d="M129.56 34.6293C137.811 34.6293 144.5 27.9395 144.5 19.6872C144.5 11.4349 137.811 4.74512 129.56 4.74512C121.31 4.74512 114.621 11.4349 114.621 19.6872C114.621 27.9395 121.31 34.6293 129.56 34.6293Z" fill="#FF6584"/>
<path d="M175.302 18.9083C171.348 14.76 166.757 10.9757 161.321 8.97593C159.807 8.41652 158.237 8.02191 156.638 7.79892C156.625 7.79716 156.613 7.79977 156.6 7.79873C156.574 7.79203 156.548 7.78685 156.521 7.78322C154.285 7.49832 152.016 7.63536 149.83 8.18724C148.762 8.45547 147.719 8.81874 146.715 9.2727C145.708 9.76435 144.731 10.3177 143.792 10.9297C141.803 12.1201 139.614 12.937 137.332 13.34C136.187 13.5463 135.026 13.6602 133.863 13.6806C132.853 13.7008 131.901 13.7359 130.944 14.1008C129.922 14.4852 129.004 15.1031 128.263 15.9053C127.523 16.7076 126.98 17.6719 126.678 18.7213C126.654 18.8147 126.661 18.9132 126.698 19.0024C126.734 19.0916 126.798 19.167 126.879 19.2176C127.138 19.403 127.391 19.6133 127.662 19.7785C127.904 19.8892 128.163 19.9597 128.427 19.9871C128.86 20.0783 129.292 20.1669 129.726 20.2528C131.322 20.5692 132.926 20.8493 134.536 21.0931C137.793 21.5863 141.068 21.9337 144.361 22.1354C150.957 22.535 157.576 22.336 164.136 21.5409C167.823 21.0943 171.485 20.4607 175.108 19.6428C175.181 19.6214 175.248 19.5814 175.301 19.5266C175.355 19.4719 175.393 19.4043 175.412 19.3303C175.432 19.2564 175.432 19.1788 175.413 19.1048C175.393 19.0309 175.355 18.9632 175.302 18.9083Z" fill="#1F222A"/>
<path d="M130.27 28.8988C128.756 28.3394 127.186 27.9448 125.587 27.7218C125.574 27.72 125.562 27.7226 125.549 27.7216C125.523 27.7149 125.497 27.7097 125.47 27.7061C123.235 27.4212 120.965 27.5582 118.78 28.1101C117.711 28.3783 116.668 28.7416 115.664 29.1956C114.657 29.6872 113.68 30.2406 112.741 30.8525C110.753 32.043 108.563 32.8599 106.281 33.2629C105.136 33.4691 103.976 33.583 102.812 33.6034C101.802 33.6237 100.85 33.6588 99.8932 34.0236C98.8713 34.408 97.9533 35.026 97.2125 35.8282C96.4718 36.6304 95.9287 37.5947 95.6268 38.6441C95.6035 38.7376 95.6105 38.836 95.6468 38.9252C95.6831 39.0144 95.7468 39.0898 95.8287 39.1404C96.0875 39.3258 96.3398 39.5361 96.6117 39.7013C96.8535 39.812 97.1119 39.8825 97.3765 39.9099C97.8088 40.0012 98.2416 40.0897 98.675 40.1756C100.272 40.492 101.875 40.7721 103.485 41.0159C106.742 41.5091 110.017 41.8566 113.31 42.0582C119.906 42.4578 126.525 42.2589 133.086 41.4637C136.773 41.0171 140.435 40.3836 144.057 39.5657C144.131 39.5442 144.197 39.5042 144.251 39.4494C144.304 39.3947 144.342 39.3271 144.362 39.2532C144.381 39.1793 144.381 39.1016 144.362 39.0276C144.343 38.9537 144.304 38.886 144.251 38.8311C140.298 34.6829 135.706 30.8986 130.27 28.8988Z" fill="#1F222A"/>
<path d="M238.003 140.29L226.514 125.195L217.449 130.321L236.658 153.136L238.003 140.29Z" fill="#3F3D56"/>
<path d="M264.467 115.751C264.722 122.077 265.702 128.353 267.387 134.456C267.025 135.308 266.652 136.154 266.266 136.995C264.808 140.177 263.175 143.277 261.375 146.28C256.328 154.713 250.027 162.329 242.689 168.866C241.895 169.573 241.09 170.267 240.274 170.95C235.622 164.535 233.111 157.456 232.119 150.172C231.993 149.247 231.89 148.311 231.812 147.381V147.376C231.621 145.116 231.56 142.847 231.629 140.579C231.631 140.398 231.636 140.215 231.644 140.031C231.732 137.608 231.95 135.18 232.28 132.774V132.772C232.317 132.495 232.355 132.219 232.398 131.942C232.518 131.112 232.654 130.283 232.802 129.458C233.665 124.703 234.87 120.016 236.406 115.434V115.432C236.449 115.299 236.492 115.168 236.54 115.037C236.705 114.539 236.874 114.047 237.047 113.554C237.058 113.515 237.071 113.478 237.087 113.441C237.311 112.797 237.54 112.159 237.774 111.525C237.836 111.35 237.902 111.174 237.97 110.998C238.233 110.291 238.502 109.59 238.776 108.899C238.862 108.677 238.95 108.456 239.038 108.238C239.106 108.069 239.171 107.901 239.241 107.735V107.732C239.641 106.744 240.046 105.776 240.455 104.826C241.604 102.157 242.785 99.6456 243.936 97.3304L243.939 97.3279C248.716 87.743 253.059 81.519 253.059 81.519L269.368 86.7979C267.422 90.2492 265.917 95.3395 265.093 101.345C264.457 106.118 264.248 110.938 264.467 115.749L264.467 115.751Z" fill="#3F3D56"/>
<path d="M237.363 114.215C237.267 113.991 237.159 113.773 237.048 113.554C236.475 112.444 235.737 111.427 234.859 110.538C234.729 110.404 234.593 110.271 234.452 110.145C232.938 108.751 231.097 107.76 229.1 107.266C227.102 106.771 225.011 106.788 223.022 107.315L223.012 107.32L222.936 107.34L222.954 107.426C223.029 107.824 223.139 108.215 223.281 108.594C223.318 108.698 223.361 108.796 223.404 108.894C223.422 108.939 223.444 108.979 223.464 109.024C223.464 109.024 223.462 109.027 223.467 109.027C223.467 109.029 223.469 109.032 223.469 109.034C223.517 109.127 223.562 109.223 223.613 109.313C223.509 109.215 223.411 109.115 223.316 109.012C223.223 108.916 223.138 108.816 223.052 108.715C222.759 108.373 222.494 108.009 222.26 107.624L222.22 107.556L222.15 107.584C221.201 107.913 220.297 108.356 219.456 108.904L219.365 108.964C218.723 109.386 217.999 109.668 217.241 109.791C216.483 109.915 215.707 109.878 214.964 109.683C213.793 109.381 212.572 109.326 211.378 109.521C210.185 109.716 209.044 110.157 208.03 110.817C207.359 111.255 206.751 111.784 206.226 112.39C206.181 112.443 206.135 112.498 206.09 112.551C205.995 112.667 205.904 112.785 205.816 112.906C204.871 114.169 204.292 115.667 204.14 117.237L204.135 117.295L204.183 117.327C205.033 117.91 205.995 118.311 207.007 118.504C206.371 118.592 205.727 118.609 205.087 118.551H205.085C204.795 118.527 204.506 118.487 204.22 118.431L204.167 118.421H204.165L204.1 118.408L204.11 118.529C204.185 120.065 204.668 121.553 205.51 122.84L205.535 122.875C205.544 122.888 205.552 122.901 205.56 122.915C205.916 123.461 206.213 124.043 206.444 124.652C207.032 126.166 207.161 127.819 206.816 129.406C206.426 131.103 206.556 132.878 207.189 134.5C207.822 136.123 208.929 137.516 210.365 138.5C211.627 139.369 213.097 139.885 214.625 139.996C214.834 140.014 215.045 140.024 215.256 140.024C216.464 140.027 217.66 139.778 218.767 139.292L218.807 139.277L218.817 139.232C219.03 138.545 219.329 137.888 219.707 137.276C219.583 137.758 219.521 138.254 219.521 138.752V138.918L219.664 138.835C219.787 138.762 219.913 138.684 220.026 138.611C220.705 138.168 221.32 137.633 221.853 137.022C222.062 136.781 222.273 136.547 222.494 136.313L222.497 136.311C222.926 135.853 223.381 135.406 223.854 134.979C224.859 134.076 225.935 133.254 227.071 132.523C228.206 131.794 229.393 131.148 230.622 130.592H230.624C230.763 130.527 230.903 130.464 231.042 130.404C231.654 130.137 232.243 129.821 232.803 129.459C232.824 129.446 232.841 129.436 232.859 129.423C235.288 127.832 237.074 125.43 237.899 122.645C238.724 119.86 238.534 116.873 237.363 114.215L237.363 114.215Z" fill="#9610FF"/>
<path opacity="0.15" d="M207.229 132.975C207.16 133.281 207.108 133.59 207.073 133.901C206.605 132.422 206.537 130.845 206.877 129.332C206.929 129.1 206.968 128.866 206.999 128.63C207.463 130.032 207.543 131.532 207.229 132.975Z" fill="black"/>
<path opacity="0.15" d="M207.42 122.071C206.675 122.174 205.92 122.178 205.174 122.081C204.979 121.713 204.81 121.331 204.67 120.939C205.5 121.499 206.436 121.884 207.42 122.071Z" fill="black"/>
<path opacity="0.15" d="M205.116 118.471C204.841 119.174 204.659 119.909 204.573 120.659C204.344 119.945 204.208 119.204 204.17 118.455L204.164 118.334L204.283 118.357C204.558 118.409 204.837 118.447 205.116 118.471Z" fill="black"/>
<path opacity="0.15" d="M208.094 110.742C209.107 110.082 210.247 109.64 211.44 109.444C212.633 109.249 213.854 109.304 215.024 109.607C215.767 109.803 216.544 109.841 217.302 109.717C218.061 109.594 218.785 109.311 219.427 108.889L219.518 108.829C220.358 108.28 221.263 107.836 222.211 107.506L222.283 107.481L222.323 107.547C222.698 108.167 223.152 108.735 223.674 109.237C223.357 108.646 223.135 108.009 223.016 107.349L222.999 107.262L223.085 107.24C224.951 106.746 226.907 106.7 228.794 107.106C230.681 107.512 232.445 108.359 233.943 109.577C235.441 110.795 236.629 112.35 237.411 114.115C238.194 115.88 238.548 117.805 238.445 119.733C238.049 118.161 237.345 116.684 236.374 115.386C235.403 114.088 234.185 112.996 232.789 112.173C231.393 111.35 229.847 110.812 228.242 110.59C226.637 110.369 225.004 110.468 223.437 110.883L223.351 110.905L223.368 110.992C223.487 111.652 223.709 112.29 224.026 112.88C223.504 112.378 223.05 111.81 222.675 111.19L222.635 111.124L222.563 111.149C221.615 111.479 220.711 111.923 219.87 112.472L219.78 112.532C219.137 112.954 218.413 113.237 217.655 113.36C216.896 113.484 216.12 113.446 215.377 113.25C213.431 112.745 211.37 112.931 209.546 113.775C207.722 114.62 206.248 116.071 205.374 117.882C204.985 117.695 204.608 117.484 204.245 117.251L204.195 117.22L204.201 117.162C204.326 115.868 204.741 114.619 205.415 113.507C206.089 112.396 207.005 111.451 208.094 110.742Z" fill="black"/>
<path d="M301.528 46.5129L301.289 46.3546L301.115 46.5808C299.773 48.2709 298.706 50.1617 297.951 52.1839C298.055 49.8543 298.463 47.5482 299.163 45.3239L299.238 45.0902L299.022 44.967C296.21 43.3744 293.214 42.1317 290.1 41.2668L289.761 41.1763C287.374 40.5213 285.153 39.3707 283.241 37.7993C281.329 36.2279 279.77 34.2711 278.665 32.0564C276.097 26.9738 272.04 22.7953 267.037 20.0785C262.033 17.3616 256.32 16.2357 250.659 16.8509H250.657C250.597 16.8559 250.534 16.8634 250.473 16.871C250.37 16.881 250.27 16.8936 250.169 16.9062C249.963 16.9338 249.762 16.9615 249.561 16.9916C249.39 17.0168 249.217 17.0444 249.046 17.0746C248.955 17.0872 248.867 17.1023 248.779 17.1198C248.691 17.1349 248.601 17.15 248.513 17.1676H248.511C246.823 17.4869 245.169 17.9623 243.569 18.5879H243.567V18.5904L243.162 18.7487C242.745 18.9197 242.331 19.1007 241.921 19.2917C241.828 19.3344 241.737 19.3797 241.644 19.4224C241.619 19.435 241.592 19.4476 241.566 19.4626C241.303 19.5883 241.041 19.719 240.782 19.8573C240.745 19.8749 240.707 19.895 240.669 19.9151L240.428 20.0433C239.898 20.3299 239.377 20.634 238.865 20.9558C238.822 20.9809 238.782 21.0061 238.739 21.0337C238.694 21.0639 238.646 21.094 238.601 21.1242C238.573 21.1393 238.545 21.1594 238.518 21.177C238.44 21.2248 238.365 21.275 238.289 21.3278C238.138 21.4259 237.988 21.5264 237.839 21.6295C237.686 21.7325 237.535 21.8406 237.384 21.9487L237.234 22.0568L237.261 22.2428C237.286 22.3962 237.309 22.5495 237.337 22.7003C237.362 22.8511 237.387 22.9995 237.415 23.1478C237.457 23.3966 237.505 23.643 237.553 23.8818C237.585 24.0401 237.616 24.196 237.651 24.3493C237.683 24.5077 237.719 24.6661 237.756 24.8244C237.829 25.1512 237.907 25.4679 237.99 25.7796C238.03 25.9355 238.073 26.0913 238.118 26.2447C238.143 26.3377 238.169 26.4307 238.196 26.5212C238.216 26.584 238.236 26.6469 238.256 26.7097C238.262 26.7298 238.267 26.7525 238.274 26.7751C238.28 26.7964 238.286 26.8174 238.294 26.8379C238.322 26.9309 238.349 27.0214 238.377 27.1094C238.392 27.1572 238.407 27.2049 238.425 27.2502C238.46 27.3583 238.498 27.4689 238.535 27.5745C238.576 27.6951 238.618 27.8158 238.661 27.9339C238.671 27.9641 238.681 27.9917 238.691 28.0219C238.699 28.0445 238.706 28.0671 238.716 28.0898C238.726 28.1149 238.737 28.1426 238.747 28.1677C238.789 28.2808 238.832 28.3964 238.877 28.5096C238.892 28.5498 238.907 28.5925 238.925 28.6327C239.332 29.6568 239.833 30.6413 240.42 31.5738C239.769 31.0158 239.143 30.4242 238.54 29.7991C237.61 28.8326 236.754 27.7983 235.977 26.7047C235.914 26.6192 235.851 26.5313 235.794 26.4433C235.675 26.2749 235.56 26.1064 235.447 25.9355C235.326 25.7595 235.21 25.576 235.097 25.395C235.022 25.2744 234.947 25.1512 234.874 25.0306C234.801 24.9149 234.733 24.8018 234.668 24.6862L234.472 24.3493H234.469V24.3518L234.193 24.6233C234.082 24.7314 233.971 24.8395 233.863 24.9476C230.485 28.3469 228.039 32.5584 226.758 37.1769L226.721 37.3152L226.683 37.4584C226.61 37.7148 226.537 37.9637 226.459 38.2176V38.2201C226.384 38.4715 226.303 38.7228 226.218 38.9692C226.14 39.203 226.06 39.4342 225.974 39.6655C225.947 39.7434 225.916 39.8213 225.884 39.8993C225.831 40.0501 225.773 40.1984 225.715 40.3492C225.688 40.4171 225.66 40.4875 225.632 40.5554C225.565 40.7213 225.497 40.8872 225.429 41.0506C225.419 41.0757 225.406 41.1033 225.394 41.1285C225.374 41.1788 225.351 41.229 225.331 41.2768C225.278 41.3975 225.223 41.5206 225.17 41.6413C225.132 41.7192 225.097 41.7997 225.062 41.8776C225.047 41.9128 225.029 41.948 225.014 41.9832C224.921 42.1843 224.826 42.3828 224.725 42.5789C224.612 42.8102 224.496 43.0415 224.373 43.2677C224.265 43.4788 224.152 43.685 224.034 43.8911C223.83 44.2556 223.617 44.6176 223.396 44.9695C223.31 45.1052 223.225 45.241 223.137 45.3767C223.117 45.4094 223.097 45.4421 223.076 45.4722C223.004 45.5904 222.928 45.7035 222.85 45.8191C222.797 45.8971 222.745 45.975 222.692 46.0504C222.604 46.1861 222.511 46.3168 222.415 46.445C222.39 46.4853 222.363 46.523 222.335 46.5607C222.194 46.7568 222.054 46.9478 221.91 47.1388C221.905 47.1413 221.905 47.1439 221.903 47.1464C221.898 47.1464 221.898 47.1489 221.895 47.1514C221.832 47.2344 221.77 47.3173 221.704 47.3977C221.619 47.5159 221.526 47.6315 221.433 47.7446C221.282 47.9357 221.124 48.1292 220.963 48.3178C220.958 48.3228 220.955 48.3278 220.95 48.3303C220.118 49.3089 219.215 50.2263 218.251 51.0753C218.233 51.0904 218.221 51.1055 218.203 51.1181C218.068 51.2362 217.932 51.3544 217.791 51.47C217.733 51.5178 217.675 51.5655 217.618 51.6133C217.522 51.6937 217.424 51.7742 217.329 51.8471C217.317 51.8586 217.305 51.8687 217.291 51.8772C217.206 51.9476 217.123 52.013 217.037 52.0783C216.934 52.1613 216.831 52.2392 216.725 52.3171C216.228 52.6942 215.717 53.0503 215.192 53.3855C215.114 53.4382 215.032 53.491 214.951 53.5413C214.903 53.5715 214.856 53.6016 214.81 53.6268C214.619 53.7449 214.428 53.8606 214.237 53.9712C214.046 54.0843 213.85 54.1924 213.657 54.2979C213.242 54.5242 212.832 54.7605 212.433 55.0068C212.232 55.1325 212.031 55.2582 211.832 55.3864C211.043 55.8992 210.283 56.448 209.553 57.0329C208.822 57.6181 208.122 58.2398 207.454 58.8956C207.371 58.976 207.288 59.059 207.205 59.1444C207.039 59.3078 206.879 59.4737 206.725 59.6396C206.479 59.8935 206.243 60.1549 206.009 60.4189C204.776 61.8176 203.685 63.3349 202.752 64.9486C202.283 65.7544 201.857 66.5842 201.475 67.4347C201.186 68.0707 200.922 68.7218 200.683 69.3803C200.525 69.8202 200.377 70.2643 200.239 70.7126C200.171 70.9363 200.105 71.1626 200.043 71.3888C199.829 72.1555 199.65 72.9297 199.505 73.7065C199.387 74.3299 199.291 74.9541 199.218 75.5792C199.18 75.8934 199.15 76.2076 199.123 76.5193C199.058 77.2855 199.025 78.0523 199.023 78.82C199.019 81.1228 199.299 83.4174 199.857 85.6517C199.98 86.1444 200.116 86.6346 200.266 87.1223C200.342 87.3661 200.422 87.6074 200.502 87.8487C200.706 88.452 200.931 89.0495 201.178 89.641C201.327 89.9955 201.483 90.3474 201.646 90.6968C202.684 92.9181 204.009 94.9937 205.587 96.8705C205.846 97.1797 206.113 97.4839 206.388 97.783C206.391 97.783 206.388 97.7855 206.388 97.7855C207.072 98.5316 207.796 99.2398 208.557 99.9071H208.56C208.864 100.176 209.173 100.437 209.487 100.689C209.49 100.686 209.49 100.689 209.49 100.689C209.806 100.945 210.126 101.192 210.452 101.43C210.616 101.549 210.782 101.667 210.95 101.785C211.279 102.019 211.615 102.244 211.958 102.461H211.96C212.302 102.682 212.649 102.893 213.001 103.095C213.707 103.499 214.431 103.879 215.175 104.223L215.3 104.281L215.429 104.223C216.621 103.686 217.851 103.235 219.108 102.873C219.384 102.793 219.663 102.72 219.94 102.65C220.639 102.476 221.342 102.33 222.051 102.212C221.361 102.559 220.694 102.951 220.056 103.386C219.56 103.72 219.073 104.085 218.583 104.487C218.419 104.62 218.256 104.759 218.093 104.899L217.686 105.251L218.196 105.42C218.382 105.48 218.568 105.54 218.754 105.596C219.007 105.676 219.259 105.749 219.505 105.817C220.043 105.968 220.584 106.101 221.129 106.217C221.262 106.244 221.393 106.272 221.526 106.3C221.785 106.35 222.046 106.4 222.307 106.445C222.318 106.448 222.329 106.45 222.34 106.45C222.612 106.496 222.885 106.538 223.157 106.576C223.662 106.649 224.167 106.707 224.672 106.749C224.728 106.757 224.783 106.76 224.841 106.762C224.964 106.772 225.085 106.782 225.208 106.79C225.479 106.807 225.753 106.82 226.027 106.83C226.047 106.83 226.065 106.832 226.085 106.832C226.223 106.837 226.361 106.842 226.5 106.845C226.5 106.845 226.5 106.848 226.502 106.845C226.64 106.848 226.778 106.85 226.917 106.85H227.681C227.824 106.85 227.967 106.853 228.113 106.853C228.314 106.853 228.518 106.855 228.719 106.858C228.772 106.858 228.827 106.86 228.882 106.86C229.204 106.865 229.525 106.873 229.847 106.88C229.867 106.88 229.887 106.883 229.907 106.883C230.229 106.893 230.551 106.903 230.873 106.918C230.943 106.92 231.013 106.923 231.086 106.928C231.395 106.941 231.704 106.956 232.014 106.973C232.102 106.978 232.192 106.986 232.283 106.991C232.516 107.003 232.752 107.018 232.986 107.036C233.124 107.044 233.26 107.054 233.398 107.066C233.956 107.109 234.512 107.157 235.07 107.212C235.256 107.227 235.442 107.247 235.628 107.267C236.125 107.32 236.625 107.378 237.126 107.441C237.349 107.466 237.573 107.496 237.797 107.526C237.822 107.529 237.847 107.531 237.872 107.536C238.148 107.574 238.422 107.612 238.699 107.652C238.88 107.677 239.061 107.705 239.242 107.732C239.428 107.76 239.614 107.788 239.8 107.82C239.9 107.835 240.001 107.853 240.104 107.871C240.345 107.908 240.589 107.949 240.833 107.994C240.855 107.996 240.876 107.999 240.898 108.004C241.416 108.094 241.936 108.19 242.454 108.293C242.758 108.351 243.059 108.411 243.361 108.474C243.597 108.522 243.833 108.572 244.07 108.622C244.11 108.63 244.15 108.64 244.19 108.65C244.199 108.653 244.209 108.654 244.218 108.655C244.575 108.733 244.934 108.813 245.291 108.899C246.53 109.185 247.768 109.504 249.003 109.854C249.287 109.932 249.571 110.015 249.855 110.098C249.976 110.133 250.094 110.168 250.212 110.203C250.458 110.276 250.702 110.349 250.948 110.427C251.165 110.492 251.383 110.56 251.599 110.631C251.735 110.673 251.871 110.716 252.007 110.761C252.218 110.827 252.429 110.895 252.637 110.968C252.816 111.023 252.992 111.081 253.168 111.143C253.419 111.226 253.673 111.312 253.924 111.402C253.997 111.428 254.072 111.453 254.145 111.48C254.452 111.586 254.759 111.694 255.065 111.807C255.364 111.915 255.663 112.026 255.96 112.136C256.166 112.214 256.372 112.29 256.576 112.37C256.804 112.458 257.033 112.546 257.259 112.637C257.586 112.765 257.915 112.896 258.242 113.029C258.543 113.149 258.843 113.273 259.144 113.401C259.199 113.423 259.257 113.446 259.313 113.471C259.574 113.579 259.835 113.692 260.094 113.806C260.263 113.876 260.428 113.949 260.594 114.022C261.318 114.338 262.041 114.666 262.763 115.005H262.766C263.218 115.218 263.678 115.422 264.141 115.615C264.249 115.661 264.357 115.706 264.467 115.749C264.651 115.827 264.837 115.899 265.023 115.975C265.143 116.023 265.264 116.07 265.387 116.116C265.566 116.186 265.746 116.254 265.927 116.319C266.118 116.39 266.307 116.46 266.5 116.525C266.568 116.551 266.636 116.573 266.707 116.598C266.93 116.674 267.154 116.749 267.38 116.822C267.403 116.83 267.425 116.837 267.45 116.845C267.687 116.92 267.923 116.995 268.162 117.066C268.181 117.073 268.2 117.079 268.22 117.083C268.476 117.161 268.737 117.237 268.996 117.31C269.378 117.415 269.763 117.516 270.147 117.609C270.218 117.626 270.288 117.644 270.358 117.659C270.564 117.709 270.768 117.757 270.974 117.802C271.193 117.853 271.414 117.898 271.633 117.943C271.854 117.988 272.075 118.034 272.294 118.074C272.412 118.096 272.53 118.119 272.645 118.139L272.954 118.192C273.168 118.23 273.382 118.262 273.598 118.298C273.604 118.297 273.61 118.298 273.615 118.3C273.859 118.338 274.101 118.373 274.344 118.403C274.578 118.436 274.812 118.464 275.046 118.491C275.093 118.496 275.144 118.501 275.194 118.506C275.387 118.529 275.581 118.551 275.774 118.569C275.83 118.574 275.885 118.579 275.94 118.584C276.131 118.602 276.322 118.619 276.513 118.632C276.552 118.637 276.59 118.639 276.629 118.639C276.8 118.655 276.971 118.667 277.142 118.675C277.262 118.685 277.38 118.69 277.501 118.697C277.564 118.7 277.624 118.702 277.687 118.705C277.853 118.715 278.019 118.72 278.187 118.725C278.391 118.732 278.594 118.738 278.795 118.743C279.039 118.748 279.285 118.75 279.529 118.75H279.534C279.773 118.75 280.014 118.748 280.253 118.743H280.343L280.607 118.735C280.743 118.732 280.879 118.727 281.012 118.722C281.268 118.712 281.522 118.7 281.776 118.685C281.877 118.68 281.98 118.672 282.08 118.667C282.125 118.665 282.173 118.66 282.218 118.657C282.377 118.647 282.533 118.637 282.691 118.624C282.854 118.612 283.02 118.597 283.183 118.579C283.395 118.559 283.606 118.536 283.817 118.514C283.983 118.496 284.149 118.476 284.312 118.456C284.334 118.454 284.356 118.451 284.377 118.446C284.536 118.428 284.694 118.408 284.85 118.386C285.036 118.36 285.219 118.333 285.403 118.305C285.423 118.303 285.44 118.3 285.46 118.298C285.777 118.247 286.096 118.197 286.416 118.139C286.75 118.079 287.084 118.014 287.416 117.946C287.539 117.921 287.66 117.893 287.783 117.868C287.851 117.853 287.921 117.84 287.986 117.825C288.089 117.802 288.19 117.78 288.29 117.755C288.308 117.752 288.328 117.747 288.346 117.745C288.486 117.714 288.625 117.679 288.765 117.644C289.047 117.576 289.323 117.506 289.6 117.43C289.723 117.4 289.846 117.368 289.964 117.335C289.999 117.325 290.035 117.315 290.067 117.305C290.577 117.161 291.083 117.01 291.585 116.85C291.806 116.779 292.025 116.706 292.244 116.628C292.714 116.468 293.18 116.298 293.641 116.121C293.764 116.075 293.887 116.025 294.011 115.977C294.192 115.905 294.372 115.832 294.551 115.759C294.712 115.691 294.873 115.623 295.036 115.553C295.116 115.52 295.197 115.485 295.277 115.45C295.519 115.344 295.76 115.236 295.999 115.128C296.159 115.052 296.318 114.979 296.476 114.904C296.727 114.783 296.976 114.66 297.225 114.537C297.288 114.504 297.348 114.472 297.409 114.442C297.567 114.361 297.725 114.278 297.886 114.198C298.14 114.062 298.394 113.926 298.645 113.785C298.73 113.74 298.813 113.692 298.899 113.645C299.175 113.489 299.449 113.33 299.721 113.17C300.321 112.81 300.914 112.435 301.498 112.043C301.643 111.948 301.789 111.847 301.932 111.749C302.204 111.563 302.47 111.372 302.737 111.181C302.764 111.161 302.789 111.141 302.817 111.123C302.95 111.025 303.083 110.927 303.217 110.827C303.493 110.618 303.767 110.407 304.041 110.191C304.046 110.188 304.054 110.181 304.061 110.176C304.184 110.078 304.307 109.98 304.428 109.882C304.802 109.577 305.172 109.268 305.534 108.949C305.712 108.796 305.888 108.637 306.062 108.479C306.192 108.361 306.323 108.243 306.451 108.122C306.71 107.878 306.964 107.637 307.215 107.391C307.341 107.27 307.464 107.144 307.59 107.018C307.713 106.893 307.838 106.767 307.962 106.639C308.004 106.596 308.047 106.551 308.09 106.506C308.215 106.372 308.341 106.237 308.467 106.103C308.575 105.988 308.68 105.867 308.788 105.747C308.969 105.545 309.153 105.344 309.331 105.141C309.341 105.129 309.351 105.118 309.362 105.108C309.372 105.095 309.382 105.085 309.389 105.075H309.387C313.04 100.85 315.754 95.8972 317.35 90.5442C318.946 85.1911 319.387 79.5602 318.644 74.0239C317.901 68.4876 315.991 63.1722 313.04 58.4296C310.09 53.6869 306.165 49.6251 301.528 46.513L301.528 46.5129Z" fill="#9610FF"/>
<g opacity="0.15">
<path opacity="0.15" d="M250.657 16.8486C251.158 18.6486 251.912 20.3683 252.896 21.9565C251.249 20.5412 249.777 18.9336 248.512 17.168C249.222 17.0336 249.938 16.9272 250.657 16.8486Z" fill="black"/>
<path opacity="0.15" d="M226.134 44.685C224.273 45.7004 222.534 46.9232 220.949 48.33C223.626 45.1646 225.582 41.455 226.682 37.4582C226.695 37.4102 226.708 37.3619 226.721 37.3138L226.759 37.1778C228.081 32.4076 230.646 28.0742 234.191 24.6208L234.47 24.3491L234.667 24.6848C235.754 26.5334 237.054 28.2475 238.542 29.7919C236.263 36.2255 231.827 41.5801 226.134 44.685Z" fill="black"/>
<path opacity="0.15" d="M239.235 27.5626L239.198 27.6987C239.185 27.7468 239.171 27.7951 239.158 27.8431C239.084 28.1076 239.006 28.3702 238.926 28.6316C238.131 26.5719 237.573 24.4285 237.262 22.2426L237.232 22.0571L237.385 21.9481C239.297 20.5737 241.374 19.4443 243.568 18.5864C241.599 21.2953 240.131 24.3355 239.235 27.5626Z" fill="black"/>
<path opacity="0.15" d="M213.658 54.3C215.304 53.3988 216.845 52.317 218.251 51.0747C215.441 54.3472 213.427 58.2262 212.366 62.4076C211.305 66.5891 211.227 70.9594 212.137 75.1761C213.048 79.3929 214.922 83.3415 217.613 86.7126C220.305 90.0837 223.74 92.7856 227.65 94.6068L227.777 94.6655L227.904 94.6082C230.016 93.6539 232.242 92.9776 234.528 92.5962C233.101 93.3231 231.771 94.2262 230.569 95.2842L230.163 95.6359L230.673 95.8043C231.113 95.9499 231.554 96.0839 231.982 96.2028C234.497 96.9035 237.097 97.2515 239.708 97.2368C251.571 97.1608 263.526 99.9039 275.241 105.39C277.25 106.329 279.334 107.1 281.471 107.693C290.784 110.286 300.726 109.353 309.394 105.073C304.507 110.726 298.117 114.876 290.966 117.042C283.815 119.207 276.196 119.3 268.995 117.308C266.858 116.715 264.774 115.944 262.765 115.005C251.05 109.519 239.095 106.776 227.232 106.852C224.621 106.867 222.021 106.519 219.506 105.818C219.078 105.699 218.637 105.565 218.197 105.419L217.687 105.251L218.093 104.899C219.295 103.841 220.625 102.938 222.052 102.211C219.766 102.593 217.539 103.269 215.428 104.223L215.301 104.28L215.174 104.222C210.478 102.036 206.483 98.5881 203.632 94.263C200.782 89.938 199.19 84.9059 199.032 79.7282C198.875 74.5506 200.159 69.4311 202.742 64.941C205.325 60.4509 209.104 56.7668 213.658 54.3L213.658 54.3Z" fill="black"/>
</g>
</g>
<defs>
<clipPath id="clip0_1352_18026">
<rect width="237" height="200" fill="white" transform="translate(82 0.25)"/>
</clipPath>
</defs>
</svg>
