<svg width="24" height="24" viewBox="0 0 24 24" fill="none" xmlns="http://www.w3.org/2000/svg">
<path d="M4 12C4 12.2761 4.22388 12.5 4.5 12.5H13.293L10.6465 15.1465C10.5527 15.2402 10.5001 15.3674 10.5001 15.4999C10.5 15.7761 10.7239 15.9999 11 16C11.1326 16.0001 11.2598 15.9474 11.3535 15.8535L14.8535 12.3535C14.8535 12.3535 14.8536 12.3535 14.8536 12.3534C15.0488 12.1581 15.0487 11.8417 14.8535 11.6465L11.3535 8.14655C11.1597 7.95941 10.8525 7.95941 10.6588 8.14655C10.4601 8.33838 10.4547 8.65491 10.6465 8.85352L13.293 11.5H4.5C4.22388 11.5 4 11.7239 4 12ZM17.5 2H6.5C5.11981 2.00128 4.00128 3.11981 4 4.5V8.5C4 8.77612 4.22388 9 4.5 9C4.77612 9 5 8.77612 5 8.5V4.5C5.00092 3.67194 5.67194 3.00092 6.5 3H17.5C18.3281 3.00092 18.9991 3.67194 19 4.5V19.5C18.9991 20.3281 18.3281 20.9991 17.5 21H6.5C5.67194 20.9991 5.00092 20.3281 5 19.5V15.5C5 15.2239 4.77612 15 4.5 15C4.22388 15 4 15.2239 4 15.5V19.5C4.00128 20.8802 5.11981 21.9987 6.5 22H17.5C18.8802 21.9987 19.9987 20.8802 20 19.5V4.5C19.9987 3.11981 18.8802 2.00128 17.5 2Z" fill="black"/>
</svg>
