<svg width="16" height="16" viewBox="0 0 16 16" fill="none" xmlns="http://www.w3.org/2000/svg">
<path fill-rule="evenodd" clip-rule="evenodd" d="M14.1253 1.39727C13.7937 1.06566 13.256 1.06566 12.9244 1.39727L7.71878 6.60292L2.52238 1.40652C2.19077 1.07491 1.65312 1.07491 1.32151 1.40652C0.989894 1.73813 0.989895 2.27578 1.32151 2.60739L6.51791 7.80379L1.39738 12.9243C1.06577 13.2559 1.06577 13.7936 1.39738 14.1252C1.72899 14.4568 2.26664 14.4568 2.59825 14.1252L7.71878 9.00467L12.8486 14.1344C13.1802 14.4661 13.7178 14.4661 14.0494 14.1344C14.381 13.8028 14.381 13.2652 14.0494 12.9336L8.91965 7.80379L14.1253 2.59814C14.4569 2.26653 14.4569 1.72888 14.1253 1.39727Z" fill="#12151A"/>
</svg>
